<?xml version="1.0" encoding="UTF-8" standalone="no"?>
<svg
   xmlns:dc="http://purl.org/dc/elements/1.1/"
   xmlns:cc="http://creativecommons.org/ns#"
   xmlns:rdf="http://www.w3.org/1999/02/22-rdf-syntax-ns#"
   xmlns:svg="http://www.w3.org/2000/svg"
   xmlns="http://www.w3.org/2000/svg"
   xmlns:sodipodi="http://sodipodi.sourceforge.net/DTD/sodipodi-0.dtd"
   xmlns:inkscape="http://www.inkscape.org/namespaces/inkscape"
   width="349px"
   height="91px"
   viewBox="0 0 349 91"
   version="1.1"
   id="svg2"
   inkscape:version="0.91 r13725"
   sodipodi:docname="Audensiel.svg">
  <metadata
     id="metadata20">
    <rdf:RDF>
      <cc:Work
         rdf:about="">
        <dc:format>image/svg+xml</dc:format>
        <dc:type
           rdf:resource="http://purl.org/dc/dcmitype/StillImage" />
      </cc:Work>
    </rdf:RDF>
  </metadata>
  <sodipodi:namedview
     pagecolor="#ffffff"
     bordercolor="#666666"
     borderopacity="1"
     objecttolerance="10"
     gridtolerance="10"
     guidetolerance="10"
     inkscape:pageopacity="0"
     inkscape:pageshadow="2"
     inkscape:window-width="1920"
     inkscape:window-height="1026"
     id="namedview18"
     showgrid="false"
     inkscape:zoom="2"
     inkscape:cx="248.52952"
     inkscape:cy="59.23177"
     inkscape:window-x="0"
     inkscape:window-y="0"
     inkscape:window-maximized="1"
     inkscape:current-layer="LOGO_Gris" />
  <!-- Generator: Sketch 43.1 (39012) - http://www.bohemiancoding.com/sketch -->
  <title
     id="title4">LOGO_Gris</title>
  <desc
     id="desc6">Created with Sketch.</desc>
  <defs
     id="defs8" />
  <g
     id="1366px"
     stroke="none"
     stroke-width="1"
     fill="none"
     fill-rule="evenodd">
    <g
       id="1366/00_1366_HOME">
      <g
         id="HEADER">
        <g
           id="LOGO_Gris">
          <g
             id="LOGO"
             stroke-width="1"
             transform="translate(43.101386, 27.957055)">
            <path
               d="M168.923109,3.69104149 L185.540856,3.69104149 C186.107382,3.69104149 186.187018,4.43675084 186.195083,4.76141342 C186.204155,5.69076005 186.955154,6.44154225 187.880547,6.44154225 C188.810979,6.44154225 189.567019,5.68264348 189.567019,4.74518029 C189.567019,2.95750698 188.494451,0.297302991 185.540856,0.297302991 L168.853553,0.297302991 C168.819279,0.297302991 168.787022,0.298317561 168.754764,0.300346702 C166.862649,0.411949463 164.048166,1.93177615 164.048166,5.6613375 C164.048166,9.43655452 166.899947,10.8691281 168.853553,10.9117401 L176.807088,10.9117401 L184.725342,10.9107255 C185.070096,10.9188421 186.195083,11.075086 186.195083,12.7673896 C186.195083,14.332872 185.250537,14.677826 184.692076,14.7397148 L168.07332,14.7397148 C167.507803,14.7397148 167.428167,13.9919763 167.420102,13.6693429 C167.41103,12.7389817 166.660031,11.9881995 165.73363,11.9881995 C164.803198,11.9881995 164.048166,12.7481128 164.048166,13.6845614 C164.048166,15.4722347 165.119726,18.1314242 168.07332,18.1314242 L184.761632,18.1314242 C184.793889,18.1314242 184.827155,18.1314242 184.859413,18.1283804 C186.752536,18.0177923 189.567019,16.4989801 189.567019,12.7673896 C189.567019,8.99318719 186.71423,7.559599 184.761632,7.51800161 L176.807088,7.51800161 L168.889843,7.51800161 C168.545089,7.51191419 167.420102,7.35465575 167.420102,5.6613375 C167.420102,4.09686971 168.36364,3.75293029 168.923109,3.69104149 L168.923109,3.69104149 Z M198.954005,0.582397316 C198.093128,0.582397316 197.393539,1.28448014 197.393539,2.15092339 L197.393539,16.4360768 C197.393539,17.30252 198.093128,18.0046028 198.954005,18.0046028 C199.81589,18.0046028 200.513462,17.30252 200.513462,16.4360768 L200.513462,2.15092339 C200.513462,1.28448014 199.81589,0.582397316 198.954005,0.582397316 L198.954005,0.582397316 Z M154.81642,0.582397316 C153.954535,0.582397316 153.256963,1.28448014 153.256963,2.15092339 L153.256963,13.5973084 L133.031395,0.821835966 C132.550554,0.518479371 131.943706,0.500217101 131.446736,0.778209433 C130.950774,1.05315805 130.64231,1.57972017 130.64231,2.15092339 L130.64231,16.4360768 C130.64231,17.30252 131.340891,18.0046028 132.201767,18.0046028 C133.063652,18.0046028 133.761225,17.30252 133.761225,16.4360768 L133.761225,4.98969179 L153.987801,17.7651642 C154.240822,17.9244518 154.529125,18.0046028 154.81642,18.0046028 C155.076498,18.0046028 155.335567,17.9406849 155.571452,17.8087907 C156.067414,17.5328275 156.376886,17.0062654 156.376886,16.4360768 L156.376886,2.15092339 C156.376886,1.28448014 155.677297,0.582397316 154.81642,0.582397316 L154.81642,0.582397316 Z M87.5964466,13.2959809 C87.5964466,14.5601358 86.7385938,14.8472593 86.0369892,14.8665361 L68.2579649,14.8665361 L68.2579649,3.72046403 L86.0369892,3.72046403 C86.5057336,3.72046403 87.5964466,3.87467876 87.5964466,5.29000468 L87.5964466,13.2959809 Z M86.0369892,0.582397316 L66.6974994,0.582397316 C65.8366225,0.582397316 65.138042,1.28448014 65.138042,2.15092339 L65.138042,16.4360768 C65.138042,17.30252 65.8366225,18.0046028 66.6974994,18.0046028 L86.0369892,18.0046028 C87.9180154,18.0046028 90.7163695,16.7516082 90.7163695,13.2959809 L90.7163695,5.29000468 C90.7163695,1.83539195 87.9180154,0.582397316 86.0369892,0.582397316 L86.0369892,0.582397316 Z M264.925001,14.8665361 L244.336534,14.8665361 L244.336534,2.15092339 C244.336534,1.28448014 243.637954,0.582397316 242.777077,0.582397316 C241.915192,0.582397316 241.217619,1.28448014 241.217619,2.15092339 L241.217619,16.4360768 C241.217619,17.30252 241.915192,18.0046028 242.777077,18.0046028 L264.925001,18.0046028 C265.786886,18.0046028 266.485467,17.30252 266.485467,16.4360768 C266.485467,15.5686189 265.786886,14.8665361 264.925001,14.8665361 L264.925001,14.8665361 Z M232.329619,14.8665361 L211.741152,14.8665361 L211.741152,9.7439694 L229.678441,9.7439694 C230.539318,9.7439694 231.237898,9.04087201 231.237898,8.17442876 C231.237898,7.30697094 230.539318,6.60488811 229.678441,6.60488811 L210.180687,6.60488811 C209.318802,6.60488811 208.621229,7.30697094 208.621229,8.17442876 L208.621229,16.4360768 C208.621229,17.30252 209.318802,18.0046028 210.180687,18.0046028 L232.329619,18.0046028 C233.191504,18.0046028 233.889077,17.30252 233.889077,16.4360768 C233.889077,15.5686189 233.191504,14.8665361 232.329619,14.8665361 L232.329619,14.8665361 Z M232.329619,0.582397316 L210.180687,0.582397316 C209.318802,0.582397316 208.621229,1.28448014 208.621229,2.15092339 C208.621229,3.01838121 209.318802,3.72046403 210.180687,3.72046403 L232.329619,3.72046403 C233.191504,3.72046403 233.889077,3.01838121 233.889077,2.15092339 C233.889077,1.28448014 233.191504,0.582397316 232.329619,0.582397316 L232.329619,0.582397316 Z M122.06479,14.8665361 L101.475315,14.8665361 L101.475315,9.7439694 L119.413612,9.7439694 C120.274489,9.7439694 120.973069,9.04087201 120.973069,8.17442876 C120.973069,7.30697094 120.274489,6.60488811 119.413612,6.60488811 L99.9148497,6.60488811 C99.0539728,6.60488811 98.3564004,7.30697094 98.3564004,8.17442876 L98.3564004,16.4360768 C98.3564004,17.30252 99.0539728,18.0046028 99.9148497,18.0046028 L122.06479,18.0046028 C122.925667,18.0046028 123.624248,17.30252 123.624248,16.4360768 C123.624248,15.5686189 122.925667,14.8665361 122.06479,14.8665361 L122.06479,14.8665361 Z M55.7802894,0.582397316 C54.9194125,0.582397316 54.220832,1.28448014 54.220832,2.15092339 L54.220832,12.9398666 C54.1966388,13.3243889 53.9678108,14.8665361 51.8821499,14.8665361 L37.2210325,14.8665361 C35.259362,14.8665361 34.9297288,13.5181719 34.8813423,12.9307355 L34.8813423,2.15092339 C34.8813423,1.28448014 34.1837699,0.582397316 33.3218849,0.582397316 C32.4599999,0.582397316 31.7624275,1.28448014 31.7624275,2.15092339 L31.7624275,12.9824786 L31.7644436,13.0534985 C31.8541602,15.0430714 33.38136,18.0046028 37.2210325,18.0046028 L51.8821499,18.0046028 C55.7208143,18.0046028 57.2490221,15.0430714 57.3387388,13.0534985 L57.3407549,2.15092339 C57.3407549,1.28448014 56.6421744,0.582397316 55.7802894,0.582397316 L55.7802894,0.582397316 Z M122.06479,0.582397316 L99.9148497,0.582397316 C99.0539728,0.582397316 98.3564004,1.28448014 98.3564004,2.15092339 C98.3564004,3.01838121 99.0539728,3.72046403 99.9148497,3.72046403 L122.06479,3.72046403 C122.925667,3.72046403 123.624248,3.01838121 123.624248,2.15092339 C123.624248,1.28448014 122.925667,0.582397316 122.06479,0.582397316 L122.06479,0.582397316 Z M21.4077108,10.7199863 C21.2988411,10.3192309 21.0387636,9.98543719 20.6909854,9.78150851 L14.1265467,1.19418336 C13.6023593,0.507319095 12.6235402,0.377454064 11.9400805,0.907059893 C11.2576289,1.43565115 11.1296062,2.42079916 11.6548016,3.10867799 L16.5882112,9.56337584 L8.88164883,9.56337584 L9.21128204,9.13116879 C9.73647746,8.44430452 9.60845478,7.45915652 8.92600315,6.92955069 C8.24355152,6.40095943 7.26372436,6.53082446 6.73953699,7.21768873 L0.42610336,15.4783222 C-0.0990920608,16.166201 0.0279225707,17.151349 0.710374202,17.6799403 C0.994645044,17.8990875 1.32931852,18.0046028 1.66096783,18.0046028 C2.12870425,18.0046028 2.59140041,17.7935722 2.89784841,17.3928168 L6.48248357,12.7024571 L18.9873765,12.7024571 L22.5720116,17.3928168 C22.8794677,17.7935722 23.3421638,18.0046028 23.8099002,18.0046028 C24.1415496,18.0046028 24.476223,17.8990875 24.7594858,17.6799403 C25.4419375,17.151349 25.5699601,16.166201 25.0447647,15.4783222 L21.4077108,10.7199863 Z"
               id="Fill-1"
               fill="#EE1A3B" />
            <path
               d="M29.0070117,27.5962125 L29.0070117,26.3560125 L22.4433119,26.3560125 L22.4433119,27.5962125 L25.0290119,27.5962125 L25.0290119,34.5460123 L26.4096118,34.5460123 L26.4096118,27.5962125 L29.0070117,27.5962125 Z M46.8387113,27.5962125 L46.8387113,26.3560125 L40.9887114,26.3560125 L40.9887114,34.5460123 L46.9791113,34.5460123 L46.9791113,33.3058123 L42.3693114,33.3058123 L42.3693114,31.0477124 L46.3707113,31.0477124 L46.3707113,29.8075124 L42.3693114,29.8075124 L42.3693114,27.5962125 L46.8387113,27.5962125 Z M63.0909108,26.3209125 C60.6690109,26.3209125 58.785311,28.1110124 58.785311,30.4393124 C58.785311,32.7910123 60.6456109,34.6045123 63.0441108,34.6045123 C64.2024108,34.6045123 65.3841108,34.0780123 66.2148108,33.2590123 L65.3958108,32.3464123 C64.7757108,32.9431123 63.9333108,33.3175123 63.1143108,33.3175123 C61.4763109,33.3175123 60.1893109,32.0422123 60.1893109,30.4276124 C60.1893109,28.8130124 61.4763109,27.5494125 63.1143108,27.5494125 C63.9450108,27.5494125 64.7991108,27.9472124 65.3958108,28.5907124 L66.2031108,27.5845125 C65.4075108,26.8006125 64.2492108,26.3209125 63.0909108,26.3209125 Z M85.5207103,34.5460123 L85.5207103,26.3560125 L84.1401103,26.3560125 L84.1401103,29.9128124 L79.7994104,29.9128124 L79.7994104,26.3560125 L78.4188104,26.3560125 L78.4188104,34.5460123 L79.7994104,34.5460123 L79.7994104,31.1530124 L84.1401103,31.1530124 L84.1401103,34.5460123 L85.5207103,34.5460123 Z M105.57541,34.5460123 L105.57541,26.3560125 L104.21821,26.3560125 L104.21821,32.2411123 L99.8307099,26.3560125 L98.4735099,26.3560125 L98.4735099,34.5460123 L99.8541099,34.5460123 L99.8541099,28.6726124 L104.21821,34.5460123 L105.57541,34.5460123 Z M122.202009,26.3209125 C124.647309,26.3209125 126.542709,28.1110124 126.542709,30.4510124 C126.542709,32.7910123 124.647309,34.6045123 122.202009,34.6045123 C119.756709,34.6045123 117.861309,32.7910123 117.861309,30.4510124 C117.861309,28.0993124 119.756709,26.3209125 122.202009,26.3209125 Z M122.213709,27.5611125 C120.599109,27.5611125 119.265309,28.8247124 119.265309,30.4510124 C119.265309,32.0773123 120.610809,33.3643123 122.213709,33.3643123 C123.816609,33.3643123 125.127009,32.0773123 125.127009,30.4510124 C125.127009,28.8247124 123.816609,27.5611125 122.213709,27.5611125 Z M140.197509,33.2941123 L140.197509,26.3560125 L138.816909,26.3560125 L138.816909,34.5460123 L143.742609,34.5460123 L143.742609,33.2941123 L140.197509,33.2941123 Z M159.526808,26.3209125 C161.972108,26.3209125 163.867508,28.1110124 163.867508,30.4510124 C163.867508,32.7910123 161.972108,34.6045123 159.526808,34.6045123 C157.081508,34.6045123 155.186108,32.7910123 155.186108,30.4510124 C155.186108,28.0993124 157.081508,26.3209125 159.526808,26.3209125 Z M159.538508,27.5611125 C157.923908,27.5611125 156.590108,28.8247124 156.590108,30.4510124 C156.590108,32.0773123 157.935608,33.3643123 159.538508,33.3643123 C161.141408,33.3643123 162.451808,32.0773123 162.451808,30.4510124 C162.451808,28.8247124 161.141408,27.5611125 159.538508,27.5611125 Z M181.418408,30.5212124 L181.418408,32.8027123 C180.833408,33.1537123 180.143108,33.3643123 179.534708,33.3643123 C177.861608,33.3643123 176.539508,32.0890123 176.539508,30.4510124 C176.539508,28.8247124 177.849908,27.5494125 179.523008,27.5494125 C180.377108,27.5494125 181.254608,27.9004124 181.886408,28.4854124 L182.670308,27.4675125 C181.863008,26.7655125 180.693008,26.3209125 179.523008,26.3209125 C177.042608,26.3209125 175.135508,28.1110124 175.135508,30.4510124 C175.135508,32.7910123 177.019208,34.6045123 179.441108,34.6045123 C180.564308,34.6045123 181.792808,34.1716123 182.623508,33.5398123 L182.623508,30.5212124 L181.418408,30.5212124 Z M196.758007,34.5460123 L196.758007,26.3560125 L195.377407,26.3560125 L195.377407,34.5460123 L196.758007,34.5460123 Z M215.560807,27.5962125 L215.560807,26.3560125 L209.710807,26.3560125 L209.710807,34.5460123 L215.701207,34.5460123 L215.701207,33.3058123 L211.091407,33.3058123 L211.091407,31.0477124 L215.092807,31.0477124 L215.092807,29.8075124 L211.091407,29.8075124 L211.091407,27.5962125 L215.560807,27.5962125 Z M230.877006,26.2975125 C229.098606,26.2975125 227.893506,27.1750125 227.893506,28.5790124 C227.893506,31.4923124 232.316106,30.4744124 232.316106,32.2996123 C232.316106,32.9314123 231.742806,33.2941123 230.783406,33.2941123 C229.905906,33.2941123 228.852906,32.8729123 228.010506,32.1007123 L227.413806,33.2941123 C228.256206,34.0663123 229.473006,34.5928123 230.760006,34.5928123 C232.561806,34.5928123 233.848806,33.6919123 233.848806,32.2294123 C233.860506,29.2810124 229.437906,30.2404124 229.437906,28.4503124 C229.437906,27.9004124 229.964406,27.5962125 230.771706,27.5962125 C231.391806,27.5962125 232.281006,27.8185124 233.170206,28.3567124 L233.743506,27.1399125 C232.983006,26.6368125 231.941706,26.2975125 230.877006,26.2975125 Z"
               id="TECHNOLOGIES"
               fill="#85868F"
               opacity="0.699999988" />
          </g>
        </g>
      </g>
    </g>
  </g>
</svg>
