<?xml version="1.0" encoding="UTF-8" standalone="no"?>
<!-- Created with Inkscape (http://www.inkscape.org/) -->

<svg
   xmlns:dc="http://purl.org/dc/elements/1.1/"
   xmlns:cc="http://creativecommons.org/ns#"
   xmlns:rdf="http://www.w3.org/1999/02/22-rdf-syntax-ns#"
   xmlns:svg="http://www.w3.org/2000/svg"
   xmlns="http://www.w3.org/2000/svg"
   xmlns:sodipodi="http://sodipodi.sourceforge.net/DTD/sodipodi-0.dtd"
   xmlns:inkscape="http://www.inkscape.org/namespaces/inkscape"
   width="210mm"
   height="297mm"
   viewBox="0 0 744.09448819 1052.3622047"
   id="svg2"
   version="1.1"
   inkscape:version="0.91 r13725"
   sodipodi:docname="drawing.svg">
  <defs
     id="defs4" />
  <sodipodi:namedview
     id="base"
     pagecolor="#ffffff"
     bordercolor="#666666"
     borderopacity="1.0"
     inkscape:pageopacity="0.0"
     inkscape:pageshadow="2"
     inkscape:zoom="0.35"
     inkscape:cx="-43.571429"
     inkscape:cy="514.28571"
     inkscape:document-units="px"
     inkscape:current-layer="g4248"
     showgrid="false"
     inkscape:window-width="1920"
     inkscape:window-height="1026"
     inkscape:window-x="0"
     inkscape:window-y="0"
     inkscape:window-maximized="1" />
  <metadata
     id="metadata7">
    <rdf:RDF>
      <cc:Work
         rdf:about="">
        <dc:format>image/svg+xml</dc:format>
        <dc:type
           rdf:resource="http://purl.org/dc/dcmitype/StillImage" />
        <dc:title></dc:title>
      </cc:Work>
    </rdf:RDF>
  </metadata>
  <g
     inkscape:label="Layer 1"
     inkscape:groupmode="layer"
     id="layer1">
    <g
       id="g4248"
       transform="translate(-710.85714,-264.20922)">
      <path
         id="path4174"
         d="M 192,8 C 169.528,8 150.2,21.272 141.28,40.376 139.528,40.208 137.792,40 136,40 105.072,40 80,65.072 80,96 l 0,3.376 C 67.464,104.864 58.44,116.6 56.544,130.632 L 56,130.32 c -23.136,6.888 -40,28.312 -40,53.68 0,10.776 3.096,20.808 8.376,29.352 C 14.224,224.68 8,239.592 8,256 8,274.752 16.096,291.592 28.952,303.296 25.768,310.904 24,319.24 24,328 c 0,32.64 24.432,59.568 56,63.504 l 0,-0.016 0,0.512 3.024,0 c 5.712,16.168 19.656,28.424 36.968,31.336 l 0.12,-1.472 C 120.088,422.584 120,423.28 120,424 c 0,35.344 28.656,64 64,64 35.344,0 64,-28.656 64,-64 L 248,64 C 248,33.072 222.928,8 192,8 Z M 80,295.64 80,296 c -0.08,0.216 -0.064,0.04 0,-0.36 z"
         style="fill:#ee1a3b;fill-opacity:1"
         inkscape:connector-curvature="0" />
      <g
         id="g4176">
        <path
           id="path4178"
           d="m 304,216 -32,0 0,-16 32,0 c 4.408,0 8,-3.592 8,-8 l 0,-56 16,0 0,56 c 0,13.232 -10.768,24 -24,24 z"
           style="fill:#e56565;stroke:#000000;stroke-opacity:1"
           inkscape:connector-curvature="0" />
        <path
           id="path4180"
           d="m 320,120 c -13.232,0 -24,-10.768 -24,-24 0,-13.232 10.768,-24 24,-24 13.232,0 24,10.768 24,24 0,13.232 -10.768,24 -24,24 z m 0,-32 c -4.408,0 -8,3.592 -8,8 0,4.408 3.592,8 8,8 4.408,0 8,-3.592 8,-8 0,-4.408 -3.592,-8 -8,-8 z"
           style="fill:#e56565"
           inkscape:connector-curvature="0" />
        <path
           id="path4182"
           d="m 328,360 -16,0 0,-56 c 0,-4.408 -3.592,-8 -8,-8 l -32,0 0,-16 32,0 c 13.232,0 24,10.768 24,24 l 0,56 z"
           style="fill:#e56565"
           inkscape:connector-curvature="0" />
        <path
           id="path4184"
           d="m 320,424 c -13.232,0 -24,-10.768 -24,-24 0,-13.232 10.768,-24 24,-24 13.232,0 24,10.768 24,24 0,13.232 -10.768,24 -24,24 z m 0,-32 c -4.408,0 -8,3.592 -8,8 0,4.408 3.592,8 8,8 4.408,0 8,-3.592 8,-8 0,-4.408 -3.592,-8 -8,-8 z"
           style="fill:#e56565"
           inkscape:connector-curvature="0" />
        <path
           id="path4186"
           d="m 352,256 -80,0 0,-16 80,0 c 13.232,0 24,-10.768 24,-24 l 0,-24 16,0 0,24 c 0,22.056 -17.944,40 -40,40 z"
           style="fill:#e56565"
           inkscape:connector-curvature="0" />
        <path
           id="path4188"
           d="m 384,176 c -13.232,0 -24,-10.768 -24,-24 0,-13.232 10.768,-24 24,-24 13.232,0 24,10.768 24,24 0,13.232 -10.768,24 -24,24 z m 0,-32 c -4.408,0 -8,3.592 -8,8 0,4.408 3.592,8 8,8 4.408,0 8,-3.592 8,-8 0,-4.408 -3.592,-8 -8,-8 z"
           style="fill:#e56565"
           inkscape:connector-curvature="0" />
        <rect
           id="rect4190"
           height="80"
           width="16"
           style="fill:#e56565"
           y="280"
           x="376" />
        <rect
           id="rect4192"
           height="128"
           width="16"
           style="fill:#e56565"
           y="168"
           x="416" />
        <rect
           id="rect4194"
           height="16"
           width="16"
           style="fill:#e56565"
           y="312"
           x="416" />
      </g>
      <g
         id="g4196">
        <path
           id="path4198"
           d="m 286.256,2.936 c -11.6,-1.784 -23.36,1.552 -32.272,9.184 -4.552,3.896 -8.088,8.712 -10.472,14.048 C 231.84,10.336 213.128,0 192,0 168.352,0 147.712,12.92 136.632,32.048 136.424,32.04 136.208,32 136,32 101.232,32 72.912,59.88 72.08,94.448 60.984,100.864 52.712,111.568 49.504,124.296 24.912,133.608 8,157.424 8,184 c 0,9.88 2.32,19.616 6.736,28.472 C 5.192,224.984 0,240.232 0,256 0,274.448 7.128,292.088 19.688,305.4 17.328,312.512 16,320.104 16,328 c 0,35.552 26.08,65.712 60.968,71.088 6.6,14.664 19.336,26.008 35.32,30.632 2.936,37.032 33.944,66.28 71.712,66.28 23.872,0 45.008,-11.728 58.112,-29.672 2.28,6.736 6.336,12.816 11.864,17.552 7.336,6.28 16.592,9.664 26.104,9.664 2.048,0 4.112,-0.16 6.168,-0.48 C 407.792,474.248 496,371.176 496,248 496,124.824 407.792,21.752 286.256,2.936 Z M 184,480 c -30.88,0 -56,-25.12 -56,-56 0,-30.88 25.12,-56 56,-56 l 0,-16 c -35.936,0 -65.728,26.504 -71.064,60.968 C 98.12,406.976 88,392.624 88,376 c 0,-22.056 17.944,-40 40,-40 l 0,-16 c -30.88,0 -56,25.12 -56,56 0,1.936 0.12,3.84 0.312,5.728 C 48.824,374.888 32,353.184 32,328 32,297.12 57.12,272 88,272 l 0,-16 C 62.432,256 39.992,269.44 27.216,289.576 20.008,279.96 16,268.2 16,256 c 0,-13.744 5.088,-26.992 14.336,-37.312 l 3.992,-4.456 -3.144,-5.088 C 26.488,201.544 24,192.848 24,184 24,166.568 33.72,150.736 48.464,142.336 51.584,165.816 71.688,184 96,184 l 0,-16 c -17.648,0 -32,-14.352 -32,-32 0,-17.648 14.352,-32 32,-32 17.648,0 32,14.352 32,32 l 16,0 C 144,109.528 122.472,88 96,88 93.488,88 91.04,88.256 88.624,88.624 91.888,67.608 108.792,51.08 130,48.416 c -1.256,5 -2,10.2 -2,15.584 0,35.288 28.712,64 64,64 l 0,-16 c -26.472,0 -48,-21.528 -48,-48 0,-26.472 21.528,-48 48,-48 26.472,0 48,21.528 48,48 l 0,360 c 0,30.88 -25.12,56 -56,56 z m 99.8,-2.744 c -6.968,1.104 -14.048,-0.936 -19.408,-5.52 C 259.056,467.16 256,460.512 256,453.504 l 0,-411.008 c 0,-7.016 3.056,-13.664 8.392,-18.232 4.408,-3.776 9.984,-5.808 15.704,-5.808 1.232,0 2.472,0.096 3.712,0.288 C 395.656,36.064 480,134.624 480,248 480,361.376 395.656,459.936 283.8,477.256 Z"
           style="fill:#3f3a34"
           inkscape:connector-curvature="0" />
        <rect
           id="rect4200"
           height="16"
           width="16"
           style="fill:#3f3a34"
           y="56"
           x="192" />
        <rect
           id="rect4202"
           height="16"
           width="16"
           style="fill:#3f3a34"
           y="240"
           x="152" />
        <rect
           id="rect4204"
           height="16"
           width="16"
           style="fill:#3f3a34"
           y="416"
           x="200" />
        <rect
           id="rect4206"
           height="16"
           width="16"
           style="fill:#3f3a34"
           y="296"
           x="64" />
        <rect
           id="rect4208"
           height="16"
           width="16"
           style="fill:#3f3a34"
           y="184"
           x="208" />
        <rect
           id="rect4210"
           height="16"
           width="16"
           style="fill:#3f3a34"
           y="200"
           x="56" />
      </g>
      <g
         id="g4212" />
      <g
         id="g4214" />
      <g
         id="g4216" />
      <g
         id="g4218" />
      <g
         id="g4220" />
      <g
         id="g4222" />
      <g
         id="g4224" />
      <g
         id="g4226" />
      <g
         id="g4228" />
      <g
         id="g4230" />
      <g
         id="g4232" />
      <g
         id="g4234" />
      <g
         id="g4236" />
      <g
         id="g4238" />
      <g
         id="g4240" />
    </g>
  </g>
</svg>
